<svg width="390" height="844" viewBox="0 0 390 844" fill="none" xmlns="http://www.w3.org/2000/svg">
<g clip-path="url(#clip0_1368_9760)">
<rect x="-60" y="844" width="844" height="450" transform="rotate(-90 -60 844)" fill="#1D5620"/>
<g opacity="0.15">
<g clip-path="url(#clip1_1368_9760)">
<g clip-path="url(#clip2_1368_9760)">
<path d="M341.843 -536H395.804C393.741 -531.917 391.797 -527.784 390.001 -523.587C382.364 -505.654 372.287 -490.091 358.291 -476.897C353.793 -472.645 349.813 -464.336 341.543 -469.588C333.398 -474.735 326.182 -481.297 328.409 -492.766C331.46 -507.625 335.593 -522.255 341.843 -536ZM443.52 -461.29C436.86 -485.768 434.813 -510.796 433.563 -536H464.526C465.623 -526.076 466.889 -516.179 468.38 -506.337C470.492 -492.788 470.072 -479.304 471.606 -465.783C472.561 -457.447 468.374 -450.487 459.471 -448.757C449.89 -446.917 445.725 -453.031 443.52 -461.29ZM529.846 -504.109C522.237 -514.563 514.9 -525.219 507.743 -536H550.535C553.985 -532.004 557.485 -528.041 561.022 -524.105C568.511 -515.759 574.707 -506.173 580.985 -496.833C585.314 -490.397 586.509 -483.469 580.292 -476.995C573.872 -470.379 566.808 -470.079 559.346 -474.533C547.074 -481.908 538.155 -492.788 529.846 -504.109ZM-4.93101 191.011C17.9962 201.088 31.4305 222.934 28.1497 245.234C25.2019 265.492 4.56741 283.719 -18.0377 287C-32.2308 289.14 -46.1563 288.413 -60 286.568L-60 183.762C-57.4398 183.576 -54.8796 183.39 -52.3248 183.199C-35.9428 181.955 -20.2213 184.335 -4.93101 191.011ZM166.941 -506.631C171.805 -504.06 178.29 -500.867 177.362 -493.006C176.21 -482.896 174.393 -472.786 163.677 -468.288C146.476 -460.957 128.014 -458.746 110.355 -452.862C108.952 -452.365 107.352 -452.496 105.955 -452.005C103.646 -451.142 99.9719 -451.371 100.114 -447.703C100.239 -445.214 102.974 -444.433 105.158 -443.723C119.558 -439.405 133.784 -434.52 148.365 -430.77C188.411 -420.332 228.108 -408.759 266.44 -392.945C279.814 -387.393 293.03 -380.766 303.598 -370.187C307.589 -366.159 312.545 -361.606 309.625 -355.11C307.108 -349.443 301.131 -349.504 295.727 -349.58C275.032 -349.755 256.445 -358.718 237.12 -364.532C202.931 -374.723 169.944 -389.386 134.346 -394.348C130.842 -394.85 127.288 -396.324 120.77 -393.813C137.802 -383.834 154.146 -378.861 170.206 -373.157C214.182 -357.621 258.596 -343.106 296.442 -313.835C303.631 -308.267 314.003 -302.344 309.139 -292.175C304.444 -282.578 292.812 -286.301 284.525 -288.861C251.079 -298.949 218.162 -310.74 185.72 -323.847C166.297 -331.642 147.098 -340.988 126.005 -343.69C124.045 -343.974 121.682 -345.393 119.182 -342.489C121.715 -337.587 126.431 -335.332 131.082 -333.296C151.853 -324.322 172.389 -314.982 193.471 -306.848C216.611 -297.83 235.903 -282.447 256.161 -268.505C258.497 -266.889 260.069 -263.898 261.707 -261.397C264.54 -257.243 267.341 -252.893 264.202 -247.51C260.937 -241.953 255.702 -241.216 250.271 -241.795C237.453 -243.225 225.155 -246.942 213.462 -252.259C182.308 -266.463 151.46 -281.421 120.366 -296.012C115.65 -298.261 111.403 -301.831 104.699 -300.805C109.077 -294.162 115.644 -291.552 121.392 -287.868C139.505 -276.207 157.732 -264.722 175.604 -252.707C182.799 -247.832 188.919 -241.429 194.388 -234.436C198.985 -228.644 202.402 -222.629 198.335 -215.407C194.388 -208.365 187.341 -207.59 180.375 -208.086C165.522 -209.211 151.886 -214.899 138.582 -220.942C110.251 -233.563 83.5408 -249.601 59.0468 -268.489C23.0839 -296.252 -16.946 -304.795 -60 -301.422L-60 -471.083C-22.5577 -475.341 14.1259 -484.67 50.5692 -495.621C77.0829 -503.607 103.93 -509.268 131.104 -513.903C143.67 -516.059 155.92 -512.642 166.941 -506.631ZM226.126 190.885C237.29 185.372 244.528 172.642 254.823 163.291C275.087 144.835 314.805 152.935 330.887 169.88C369.732 210.619 379.165 259.542 360.731 313.355C353.001 336.102 338.235 352.391 324.337 369.882C304.941 394.288 298.434 422.592 301.196 453.806C302.245 464.909 298.265 470.952 287.091 471.711C278.149 472.246 269.18 471.34 260.217 470.969C253.726 470.707 251.281 465.024 248.917 460.329C244.19 450.946 239.648 441.289 236.089 431.419C227.054 405.855 236.847 383.005 245.461 360.258C255.866 332.985 269.175 306.952 276.648 278.588C279.836 266.534 280.344 253.733 277.063 241.271C274.754 232.444 270.687 226.259 260.61 232.93C238.845 247.363 214.428 256.534 190.851 267.048C156.417 282.447 126.988 272.004 103.788 235.85C95.512 222.929 92.6188 207.672 88.5356 193.042C82.0014 169.558 96.4182 153.132 106.326 135.358C117.97 114.549 134.778 97.2442 144.003 74.8246C149.298 61.838 144.527 50.1069 136.688 39.9043C129.854 30.919 120.23 27.8675 109.285 30.7061C82.8365 37.5679 56.574 45.7507 28.9685 46.0892C14.1313 46.3075 4.81852 35.1005 -2.5564 24.1337C-24.0698 -7.74063 -23.1964 -43.0212 -16.7822 -78.6512C-15.7723 -84.4376 -14.4131 -90.0876 -13.627 -95.8357C-12.2568 -106.388 -5.31313 -113.206 3.40467 -114.756C16.9044 -117.016 31.1084 -116.891 44.5263 -112.076C59.0687 -106.923 63.5449 -98.9309 59.1178 -83.6952C54.4014 -66.9256 56.2355 -51.9192 65.0461 -36.4979C70.303 -27.2506 75.3252 -24.2919 84.7308 -28.7463C104.011 -37.8735 123.729 -44.8117 145.772 -41.4873C152.099 -40.5757 158.016 -38.8234 162.732 -34.7183C193.586 -7.90437 208.903 26.3991 200.131 68.5688C194.923 93.7724 181.948 115.182 170.801 137.738C162.421 154.491 160.68 173.122 171.336 190.585C181.522 207.218 197.347 210.477 213.369 199.98C217.152 197.523 220.564 194.554 225.629 190.733L226.121 190.891L226.126 190.885ZM587.83 -289.5C556.988 -311.635 509.463 -324.846 456.85 -317.231C434.485 -313.977 428.191 -315.981 419.796 -333.569C414.566 -344.514 418.933 -350.006 429.13 -352.282C502.989 -369.718 570.269 -358.691 631.157 -310.931C671.482 -279.406 686.417 -240.266 678.808 -192.894C673.682 -160.692 654.243 -135.751 627.953 -115.913C625.748 -114.292 623.433 -112.949 621.124 -111.612C602.427 -101.256 594.659 -86.7904 592.028 -64.9495C585.194 -8.94155 547.042 25.6021 495.401 45.8981C430.408 71.4238 363.411 77.2156 295.541 52.9455C277.827 46.5532 270.217 20.5035 282.107 6.74173C287.522 0.387617 294.411 -1.4793 304.122 0.955352C369.874 17.9215 435.353 22.4851 499.653 -3.30805C529.726 -15.3831 551.343 -34.7947 560.498 -65.6373C561.95 -70.5393 565.918 -76.222 561.136 -80.5018C557.048 -84.312 551.873 -80.3053 547.315 -79.0334C482.649 -60.5715 418.939 -64.9604 356.331 -89.2851C340.779 -95.3226 327.77 -105.432 315.422 -116.394C261.953 -163.853 287.451 -227.307 339.709 -250.715C399.691 -277.589 498.764 -263.057 544.629 -215.134C559.919 -199.216 570.771 -180.814 581.154 -161.937C589.801 -146.33 592.711 -147.111 607.116 -157.232C655.231 -191.317 639.22 -243.596 587.836 -289.489L587.83 -289.5ZM526.587 -171.414C499.85 -197.447 465.918 -209.396 431.003 -217.295C397.562 -224.927 365.305 -218.753 337.067 -199.079C324.773 -190.481 321.127 -178.974 327.967 -165.791C334.086 -154.011 342.127 -143.568 354.016 -135.614C391.557 -110.536 433.055 -100.743 477.49 -103.101C500.292 -104.286 523.257 -107.168 544.596 -117.267C554.635 -122.076 556.857 -127.366 552.441 -137.187C546.283 -150.659 538.116 -162.319 526.691 -171.321L526.593 -171.414H526.587ZM779.027 -471.083V-301.422C777.586 -301.313 776.139 -301.187 774.687 -301.045C750.799 -298.813 726.971 -295.679 703.575 -289.532C693.601 -286.896 686.701 -292.518 686.259 -303.442C684.305 -347.173 687.072 -390.718 692.679 -434.16C696.052 -460.537 706.107 -469.085 732.086 -468.643C747.89 -468.425 763.524 -469.315 779.027 -471.083ZM713.837 686.943C735.503 680.092 757.486 674.093 779.027 666.691V734.075C767.891 737.323 756.629 740.183 745.155 742.345C732.79 744.676 727.654 742.831 722.271 730.898C717.003 719.276 712.549 707.261 707.712 695.388C705.054 688.826 709.738 688.313 713.837 686.943ZM779.027 503.913V576.931C748.741 587.434 719.738 601.468 690.222 614.122C676.815 619.908 676.258 619.581 669.779 605.448C665.111 595.403 660.106 585.397 655.515 575.326C650.52 564.414 652.081 558.867 662.054 552.753C698.716 530.35 738.2 515.42 779.027 503.913ZM725.443 64.9168C753.943 78.3839 761.695 94.5748 756.46 126.831C752.852 149.36 747.72 171.092 731.78 189.313V189.423C747.726 186.022 763.426 184.875 779.027 183.762V286.568C767.951 285.089 756.929 282.9 745.864 280.886C740.733 279.985 735.82 278.173 728.942 280.209C741.716 298.207 751.978 316.658 757.765 337.712C768.251 375.406 748.381 430.644 700.55 438.456C666.16 444.002 636.343 420.343 632.631 378.463C629.902 346.769 630.884 314.168 647.048 284.849C653.162 273.756 644.532 276.022 639.619 276.928C614.944 281.339 590.265 282.813 565.367 281.23C536.872 279.532 510.446 270.246 486.203 255.529C451.37 234.48 450.169 189.996 482.818 165.54C512.302 143.47 544.951 144.485 578.141 152.979C598.131 158.072 617.128 165.993 634.815 176.976C644.755 183.09 644.974 179.012 644.864 169.956C644.313 137.585 650.651 107.136 669.648 80.4254C682.973 61.6306 705.027 55.1782 725.443 64.9168ZM61.1976 488.655C97.1934 492.619 128.784 508.886 152.721 536.251C176.691 563.693 187.084 592.57 169.605 623.517C165.413 630.87 159.31 636.154 152.885 641.285C133.664 656.575 113.794 670.85 90.3752 678.717C66.9021 686.687 46.3168 701.595 22.0085 707.359L21.8884 707.496C-5.63521 715.591 -32.4491 726.029 -60 734.075L-60 666.691C-59.798 666.62 -59.596 666.554 -59.3941 666.483C-38.0445 659.13 -18.5945 647.901 1.54866 638.032C16.102 630.902 31.8399 626.213 44.0131 614.4C53.124 605.546 60.9028 595.485 57.5238 582.16C54.1721 568.917 41.5294 566.128 30.1913 563.562C7.65166 558.567 -14.2002 563.671 -35.4024 569.348C-43.7162 571.559 -51.9045 574.119 -60 576.931L-60 503.913C-49.1259 500.851 -38.1646 498.028 -27.1322 495.375C1.77247 488.41 31.3923 485.413 61.1976 488.655ZM448.81 511.353C459.929 532.67 456.714 555.417 456.774 577.886C456.867 588.766 457.183 599.612 457.718 610.421C457.822 613.27 456.976 617.419 461.141 618.374C464.82 619.177 467.091 616.071 468.642 613.532C474.564 604.471 479.734 594.945 486.05 586.167C500.166 566.417 508.502 542.638 527.619 526.24C537.227 517.98 550.126 517.571 560.127 526.562C568.397 533.991 568.784 546.083 559.242 555.483C554.166 560.407 551.327 564.288 553.358 571.428C553.953 573.743 551.523 577.329 549.842 579.769C529.049 608.931 513.453 641.296 494.173 671.364C491.88 675.048 487.944 679.219 491.492 683.597C494.473 687.26 499.228 684.683 502.989 683.75C535.054 675.425 565.302 661.991 596.581 651.499C608.672 647.432 620.949 644.49 633.657 643.649C643.986 642.961 650.149 648.649 653.32 657.214C656.339 665.572 653.697 672.865 645.978 678.542C638.467 684.072 630.235 687.189 621.277 689.274C589.206 696.911 556.797 703.8 525.861 715.733C522.177 717.114 516.909 717.131 516.538 722.12C516.15 726.995 521.276 728.261 524.764 730.014C564.854 751.052 607.351 766.905 648.129 786.464C658.304 791.415 667.104 796.35 661.858 809.778C655.1 827.465 648.32 831.843 632.675 826.373C588.054 810.854 546.256 789.16 506.149 764.333C500.56 760.851 492.961 753.317 488.61 757.783C482.966 763.476 492.366 769.35 495.887 774.307C512.973 798.397 531.167 821.657 550.535 844H507.743C496.64 827.28 485.984 810.248 475.443 793.205C472.07 787.768 468.767 777.62 462.429 779.64C455.89 781.807 459.995 791.944 460.486 798.058C461.556 813.392 462.839 828.732 464.526 844H433.563C433.35 839.753 433.164 835.501 432.979 831.248C432.553 820.423 431.325 809.604 430.32 798.752C430.102 796.606 430.151 793.964 427.416 793.358C424.572 792.769 423.355 795.252 422.367 797.01C413.578 812.721 403.85 828 395.804 844H341.843C343.066 841.303 344.371 838.639 345.768 836.019C355.687 817.268 361.528 796.633 373.788 778.898C376.021 775.568 379.777 770.966 375.874 766.533C372.795 762.996 368.209 765.201 364.241 765.48C337.76 767.772 311.47 771.987 285.48 777.413C279.694 778.548 273.837 779.231 267.99 779.225C259.049 779.242 253.197 774.077 252.094 765.534C250.92 756.544 256.155 751.139 264.769 748.994C293.216 741.69 321.776 734.37 350.222 727.066C365.447 723.201 380.667 719.336 395.908 715.586L395.76 715.378C366.037 699.029 334.654 691.196 306.273 676.124C291.523 668.334 276.228 661.428 261.309 654.004C255.953 651.286 250.767 648.196 251.144 641.029C251.63 633.839 257.335 631.459 262.832 629.227C271.233 625.738 279.23 627.016 287.631 630.864C318.015 644.817 348.956 657.886 380.41 669.147C383.936 670.436 388.484 673.853 391.475 669.491C394.161 665.402 389.837 661.947 387.638 658.846C367.702 630.307 347.771 601.763 327.426 573.513C320.979 564.539 318.457 556.449 328.278 548.839C337.296 541.928 347.93 543.943 355.272 554.265C374.493 581.2 393.173 608.33 412.284 635.28C415.074 639.205 416.662 644.233 423.197 646.422C425.953 632.464 425.538 618.767 423.873 605.148C420.156 575.451 420.658 545.559 420.931 515.699C421.057 507.652 422.247 500.589 432.64 498.853C443.373 497.062 445.212 504.459 448.81 511.353Z" fill="black"/>
</g>
</g>
</g>
</g>
<defs>
<clipPath id="clip0_1368_9760">
<rect width="844" height="390" fill="white" transform="matrix(0 -1 1 0 0 844)"/>
</clipPath>
<clipPath id="clip1_1368_9760">
<rect width="1380" height="878" fill="white" transform="matrix(0 -1 1 0 -60 844)"/>
</clipPath>
<clipPath id="clip2_1368_9760">
<rect width="1380" height="839.027" fill="white" transform="matrix(0 -1 1 0 -60 844)"/>
</clipPath>
</defs>
</svg>
