<svg width="95" height="26" viewBox="0 0 95 26" fill="none" xmlns="http://www.w3.org/2000/svg">
<path d="M12.8292 14.0763L6.37246 12.9153C-3.28411 10.9708 -1.08424 0 7.0867 0H17.6861V5.31126H7.0867C5.00111 5.31126 4.45829 6.99461 7.54382 7.54605L14.0291 8.736C23.6857 10.6515 21.4573 21.7674 13.2863 21.7674H1.40133V16.282H13.2863C15.4005 16.282 15.9433 14.6277 12.8292 14.0763Z" fill="#FDC500"/>
<path d="M20.2844 0.0290246H25.6269V4.64372C31.398 1.94456 39.8546 4.84688 39.8546 13.2636V21.7674H34.5121V13.2636C34.5121 7.57507 25.684 7.57507 25.684 13.2636V21.7674H20.2844V0.0290246Z" fill="#FDC500"/>
<path d="M49.5375 3.39572C51.0232 3.39572 52.4231 3.71498 53.6516 4.32447V12.0156C53.2516 10.013 51.4231 8.85209 49.5375 8.85209C47.3662 8.85209 45.3949 10.5064 45.3949 12.6832C45.3949 17.5881 53.7087 17.7622 53.7087 12.6832C53.7087 12.48 53.6801 12.3059 53.6516 12.1317L57.3656 7.42995C58.4227 8.88112 59.0798 10.7096 59.0798 12.6832C59.0798 17.9944 54.3944 21.9706 49.5375 21.9706C44.395 21.9706 40.0238 17.7332 40.0238 12.6832C40.0238 7.34288 44.6807 3.39572 49.5375 3.39572Z" fill="#FDC500"/>
<path d="M64.6103 20.6065V25.5114H59.2392C59.2392 21.0419 59.2106 16.5723 59.2106 12.1317C59.2106 9.75181 60.1534 7.66214 61.6676 6.12391C66.6959 0.957769 76.8667 4.15033 76.8667 12.1317C76.8667 16.7754 73.1526 20.6065 68.5529 20.6065H64.6103ZM64.6103 15.0921H68.5529C70.1814 15.0921 71.5242 13.757 71.5242 12.1317C71.5242 11.261 71.1813 10.5064 70.6385 10.013C68.7243 8.18456 64.6103 9.05526 64.6103 12.1317V15.0921Z" fill="#FDC500"/>
<path d="M95 10.6225C95 12.48 95 14.3375 95 16.224C95 17.7332 94.3429 19.1263 93.343 20.1421C92.3145 21.158 90.9431 21.7674 89.3146 21.7674C84.8292 21.7674 85.4291 21.7674 82.0293 21.7674C80.458 21.7674 79.0581 21.158 78.001 20.1421C75.8297 17.9654 75.8297 14.1633 78.001 11.9576C79.0581 10.9708 80.458 10.3613 82.0293 10.3613C86.2577 10.3613 85.2292 10.3613 89.5432 10.3613C89.3432 9.4906 88.5432 8.82307 87.6004 8.82307H79.1152V3.68595H87.6004C91.5145 3.68595 94.7714 6.76242 95 10.6225ZM82.4293 17.1237C85.6577 17.1237 84.1149 17.1237 88.4575 17.1237C89.1718 17.1237 89.7717 16.5723 89.7717 15.8177V14.5116C85.9434 14.5116 85.8863 14.5116 82.4293 14.5116C80.6866 14.5116 80.6866 17.1237 82.4293 17.1237Z" fill="#FDC500"/>
<path d="M82.8108 24.4884C82.8108 25.3232 82.1446 26 81.3228 26C80.501 26 79.8348 25.3232 79.8348 24.4884C79.8348 23.6535 80.501 22.9767 81.3228 22.9767C82.1446 22.9767 82.8108 23.6535 82.8108 24.4884Z" fill="#FDC500"/>
<path d="M92.0364 24.4884C92.0364 25.3232 91.3702 26 90.5484 26C89.7266 26 89.0604 25.3232 89.0604 24.4884C89.0604 23.6535 89.7266 22.9767 90.5484 22.9767C91.3702 22.9767 92.0364 23.6535 92.0364 24.4884Z" fill="#FDC500"/>
</svg>
